<?xml version="1.0" standalone="no"?>
<svg viewBox="0 0 200 200" xmlns="http://www.w3.org/2000/svg">
  <path fill="#D84A5D" d="M44,-74.4C52.9,-62.8,53,-43.6,48.7,-29.2C44.5,-14.9,35.8,-5.5,37.8,8C39.8,21.4,52.5,39,49.6,43.7C46.7,48.5,28.1,40.4,15.7,36.2C3.3,32,-3,31.7,-11.3,32.2C-19.6,32.6,-29.9,33.7,-34,29.3C-38.2,24.9,-36.2,14.9,-41.3,3.7C-46.4,-7.5,-58.5,-19.9,-59.4,-30.9C-60.2,-41.9,-49.7,-51.5,-37.9,-61.7C-26.1,-71.9,-13.1,-82.7,2.3,-86.2C17.6,-89.8,35.2,-85.9,44,-74.4Z" transform="translate(100 100)" />
</svg>
