<?xml version="1.0" standalone="no"?>
<svg viewBox="0 0 200 200" xmlns="http://www.w3.org/2000/svg">
  <path fill="#383A72" d="M18.8,-35.7C25,-29,31.2,-25.3,41.3,-19.8C51.5,-14.4,65.6,-7.2,65.3,-0.2C64.9,6.8,50.1,13.6,40.7,20.3C31.3,27.1,27.4,33.9,21.5,38.6C15.6,43.4,7.8,46.3,0.9,44.7C-6,43.2,-12.1,37.2,-24.2,36C-36.2,34.8,-54.4,38.4,-65.4,33.2C-76.5,27.9,-80.3,14,-76.5,2.2C-72.8,-9.6,-61.4,-19.3,-51.5,-26.4C-41.6,-33.5,-33.1,-38.1,-24.8,-43.5C-16.4,-49,-8.2,-55.3,-1,-53.6C6.3,-52,12.6,-42.4,18.8,-35.7Z" transform="translate(100 100)" />
</svg>
